# xmcd
#
# Track frame offsets: 
#        150
#        10800
#        21750
#        34800
#        49950
#        61425
#        74100
#        87000
#        100350
#        112200
#        124205
#        134850
#
# Disc length: 1961 seconds
#
# Revision: 0
# Processed by: cddbd v1.5.2PL0 Copyright (c) Steve Scherf et al.
# Submitted via: ExactAudioCopy v0.95b4
#
DISCID=b707a70c
DTITLE=Jim Reeves - The Very Best Of Jim Reeves
DYEAR=1997
DGENRE=Country
TTITLE0=He'll Have to Go
TTITLE1=Welcome to My WOrld
TTITLE2=Distant Drums
TTITLE3=Blue Side of Lonesome
TTITLE4=Adios Amigo
TTITLE5=I Can't Stop Loving You
TTITLE6=Four Walls
TTITLE7=Danny Boy
TTITLE8=Have You Ever Been Lonely (Have You Ever Been Blue)
TTITLE9=Am I Losing You?
TTITLE10=Am I That Easy to Forget
TTITLE11=I Love You Because
EXTD=
EXTT0=
EXTT1=
EXTT2=
EXTT3=
EXTT4=
EXTT5=
EXTT6=
EXTT7=
EXTT8=
EXTT9=
EXTT10=
EXTT11=
PLAYORDER=
